<svg xmlns="http://www.w3.org/2000/svg" xmlns:xlink="http://www.w3.org/1999/xlink" contentStyleType="text/css" height="346px" preserveAspectRatio="none" style="width:656px;height:346px;background:#FFFFFF;" version="1.1" viewBox="0 0 656 346" width="656px" zoomAndPan="magnify"><defs/><g><ellipse cx="398.3843" cy="20" fill="#222222" rx="10" ry="10" style="stroke:#222222;stroke-width:1.0;"/><rect fill="#F1F1F1" height="33.9688" rx="12.5" ry="12.5" style="stroke:#181818;stroke-width:0.5;" width="282.7695" x="256.9995" y="50"/><text fill="#000000" font-family="sans-serif" font-size="12" lengthAdjust="spacing" textLength="262.7695" x="266.9995" y="71.1387">Usu&#225;rio envia requisi&#231;&#227;o para criar um livro</text><polygon fill="#F1F1F1" points="356.9866,103.9688,439.782,103.9688,451.782,115.9688,439.782,127.9688,356.9866,127.9688,344.9866,115.9688,356.9866,103.9688" style="stroke:#181818;stroke-width:0.5;"/><text fill="#000000" font-family="sans-serif" font-size="11" lengthAdjust="spacing" textLength="82.7954" x="356.9866" y="119.7769">Dados v&#225;lidos?</text><text fill="#000000" font-family="sans-serif" font-size="11" lengthAdjust="spacing" textLength="20.7539" x="324.2327" y="113.3745">Sim</text><text fill="#000000" font-family="sans-serif" font-size="11" lengthAdjust="spacing" textLength="21.6992" x="451.782" y="113.3745">N&#227;o</text><polygon fill="#F1F1F1" points="190.8958,137.9688,273.616,137.9688,285.616,149.9688,273.616,161.9688,190.8958,161.9688,178.8958,149.9688,190.8958,137.9688" style="stroke:#181818;stroke-width:0.5;"/><text fill="#000000" font-family="sans-serif" font-size="11" lengthAdjust="spacing" textLength="82.7202" x="190.8958" y="153.7769">Livro j&#225; existe?</text><text fill="#000000" font-family="sans-serif" font-size="11" lengthAdjust="spacing" textLength="20.7539" x="158.1418" y="147.3745">Sim</text><text fill="#000000" font-family="sans-serif" font-size="11" lengthAdjust="spacing" textLength="21.6992" x="285.616" y="147.3745">N&#227;o</text><rect fill="#F1F1F1" height="33.9688" rx="12.5" ry="12.5" style="stroke:#181818;stroke-width:0.5;" width="211.1152" x="11" y="171.9688"/><text fill="#000000" font-family="sans-serif" font-size="12" lengthAdjust="spacing" textLength="191.1152" x="21" y="193.1074">Exibe erro "Livro j&#225; cadastrado"</text><ellipse cx="116.5576" cy="236.9375" fill="none" rx="11" ry="11" style="stroke:#222222;stroke-width:1.0;"/><ellipse cx="116.5576" cy="236.9375" fill="#222222" rx="6" ry="6" style="stroke:#222222;stroke-width:1.0;"/><rect fill="#F1F1F1" height="33.9688" rx="12.5" ry="12.5" style="stroke:#181818;stroke-width:0.5;" width="211.6777" x="242.1152" y="171.9688"/><text fill="#000000" font-family="sans-serif" font-size="12" lengthAdjust="spacing" textLength="191.6777" x="252.1152" y="193.1074">Salva o livro no banco de dados</text><rect fill="#F1F1F1" height="33.9688" rx="12.5" ry="12.5" style="stroke:#181818;stroke-width:0.5;" width="119.1582" x="288.375" y="225.9375"/><text fill="#000000" font-family="sans-serif" font-size="12" lengthAdjust="spacing" textLength="99.1582" x="298.375" y="247.0762">Retorna sucesso</text><rect fill="#F1F1F1" height="33.9688" rx="12.5" ry="12.5" style="stroke:#181818;stroke-width:0.5;" width="161.4395" x="483.793" y="137.9688"/><text fill="#000000" font-family="sans-serif" font-size="12" lengthAdjust="spacing" textLength="141.4395" x="493.793" y="159.1074">Exibe erro de valida&#231;&#227;o</text><polygon fill="#F1F1F1" points="398.3843,269.9063,410.3843,281.9063,398.3843,293.9063,386.3843,281.9063,398.3843,269.9063" style="stroke:#181818;stroke-width:0.5;"/><ellipse cx="398.3843" cy="324.9063" fill="none" rx="11" ry="11" style="stroke:#222222;stroke-width:1.0;"/><ellipse cx="398.3843" cy="324.9063" fill="#222222" rx="6" ry="6" style="stroke:#222222;stroke-width:1.0;"/><line style="stroke:#181818;stroke-width:1.0;" x1="398.3843" x2="398.3843" y1="30" y2="50"/><polygon fill="#181818" points="394.3843,40,398.3843,50,402.3843,40,398.3843,44" style="stroke:#181818;stroke-width:1.0;"/><line style="stroke:#181818;stroke-width:1.0;" x1="116.5576" x2="116.5576" y1="205.9375" y2="225.9375"/><polygon fill="#181818" points="112.5576,215.9375,116.5576,225.9375,120.5576,215.9375,116.5576,219.9375" style="stroke:#181818;stroke-width:1.0;"/><line style="stroke:#181818;stroke-width:1.0;" x1="347.9541" x2="347.9541" y1="205.9375" y2="225.9375"/><polygon fill="#181818" points="343.9541,215.9375,347.9541,225.9375,351.9541,215.9375,347.9541,219.9375" style="stroke:#181818;stroke-width:1.0;"/><line style="stroke:#181818;stroke-width:1.0;" x1="178.8958" x2="116.5576" y1="149.9688" y2="149.9688"/><line style="stroke:#181818;stroke-width:1.0;" x1="116.5576" x2="116.5576" y1="149.9688" y2="171.9688"/><polygon fill="#181818" points="112.5576,161.9688,116.5576,171.9688,120.5576,161.9688,116.5576,165.9688" style="stroke:#181818;stroke-width:1.0;"/><line style="stroke:#181818;stroke-width:1.0;" x1="285.616" x2="347.9541" y1="149.9688" y2="149.9688"/><line style="stroke:#181818;stroke-width:1.0;" x1="347.9541" x2="347.9541" y1="149.9688" y2="171.9688"/><polygon fill="#181818" points="343.9541,161.9688,347.9541,171.9688,351.9541,161.9688,347.9541,165.9688" style="stroke:#181818;stroke-width:1.0;"/><line style="stroke:#181818;stroke-width:1.0;" x1="347.9541" x2="347.9541" y1="259.9063" y2="281.9063"/><line style="stroke:#181818;stroke-width:1.0;" x1="347.9541" x2="386.3843" y1="281.9063" y2="281.9063"/><polygon fill="#181818" points="376.3843,277.9063,386.3843,281.9063,376.3843,285.9063,380.3843,281.9063" style="stroke:#181818;stroke-width:1.0;"/><line style="stroke:#181818;stroke-width:1.0;" x1="344.9866" x2="232.2559" y1="115.9688" y2="115.9688"/><line style="stroke:#181818;stroke-width:1.0;" x1="232.2559" x2="232.2559" y1="115.9688" y2="137.9688"/><polygon fill="#181818" points="228.2559,127.9688,232.2559,137.9688,236.2559,127.9688,232.2559,131.9688" style="stroke:#181818;stroke-width:1.0;"/><line style="stroke:#181818;stroke-width:1.0;" x1="451.782" x2="564.5127" y1="115.9688" y2="115.9688"/><line style="stroke:#181818;stroke-width:1.0;" x1="564.5127" x2="564.5127" y1="115.9688" y2="137.9688"/><polygon fill="#181818" points="560.5127,127.9688,564.5127,137.9688,568.5127,127.9688,564.5127,131.9688" style="stroke:#181818;stroke-width:1.0;"/><line style="stroke:#181818;stroke-width:1.0;" x1="564.5127" x2="564.5127" y1="171.9375" y2="281.9063"/><line style="stroke:#181818;stroke-width:1.0;" x1="564.5127" x2="410.3843" y1="281.9063" y2="281.9063"/><polygon fill="#181818" points="420.3843,277.9063,410.3843,281.9063,420.3843,285.9063,416.3843,281.9063" style="stroke:#181818;stroke-width:1.0;"/><line style="stroke:#181818;stroke-width:1.0;" x1="398.3843" x2="398.3843" y1="83.9688" y2="103.9688"/><polygon fill="#181818" points="394.3843,93.9688,398.3843,103.9688,402.3843,93.9688,398.3843,97.9688" style="stroke:#181818;stroke-width:1.0;"/><line style="stroke:#181818;stroke-width:1.0;" x1="398.3843" x2="398.3843" y1="293.9063" y2="313.9063"/><polygon fill="#181818" points="394.3843,303.9063,398.3843,313.9063,402.3843,303.9063,398.3843,307.9063" style="stroke:#181818;stroke-width:1.0;"/><!--SRC=[NP0zRiCm34PtdU939kSAzj2btOeE3Ne0nc9G5ewOahAGwnWTUX1Vh59Se3yRGRoFVAHdiXpw5v_NnKJ1gGZ1-7qMb_Lp_L1So0YZ2HdcCoOffaEG4xfxYkeewp99BUxsoA-Sq1tal0z08nuRZBTr0L_5C_zdWFxXAaS6M-LsF_X8aJnRNR0RRfndlTI29sTqJrNhEtwWgH1qqq9I72cDYiY8pMuBzy-SrHB1vv7TjNKvHJc5l_D-ozG9XUfXT7l243Q-QNm1]--></g></svg>